/* XPM */
static char * death3_xpm[] = {
"32 32 8 1",
" 	c #C0D470",
".	c #A4C263",
"+	c #AA3B39",
"@	c #3B3834",
"#	c #AFAD9B",
"$	c #D9A163",
"%	c #5B594A",
"&	c #C0BEAD",
"                                ",
"                                ",
"                                ",
"                                ",
"  . .                           ",
"   .                   . .      ",
"                        .       ",
"            +                   ",
"                             +  ",
"                 @     @        ",
"         . .     @     @        ",
"   +      .     @#@   @#@       ",
"                @$#@ @#$@  . .  ",
"                @$#@ @#$@   .   ",
"      @@        @###@###@       ",
"     @##@      @#########@      ",
"      @#@      @###%###%#@      ",
"      @#@ @@@##@###%###%#@      ",
"      @##@&&&&&@#########@      ",
"      @#@&&&&&&@########@       ",
"      @#@@&&&@@@########@       ",
"       @ @&&@@@@@&&&###@        ",
"         @&@.      @&@          ",
"         @&%       @%@          ",
"                                ",
"                         . .    ",
"    . .                   .     ",
"     .                          ",
"                                ",
"                                ",
"                                ",
"                                "};
