/* XPM */
static char * death5_xpm[] = {
"32 32 24 1",
" 	c #C0D470",
".	c #A4C263",
"+	c #3B3834",
"@	c #AFAD9B",
"#	c #C0BEAD",
"$	c #D9A163",
"%	c #5B594A",
"&	c #AA3B39",
"*	c #BDC86A",
"=	c #AC4C3D",
"-	c #AB3F3A",
";	c #AB433A",
">	c #B1744A",
",	c #AB4F3D",
"'	c #B8A65C",
")	c #B39455",
"!	c #AE6344",
"~	c #B17A4C",
"{	c #B59057",
"]	c #B6A15A",
"^	c #C0CC70",
"/	c #BCC569",
"(	c #BECD6D",
"_	c #B9B361",
"                                ",
"                                ",
"                                ",
"                                ",
"  . .                           ",
"   .                   . .      ",
"                        .       ",
"                                ",
"                                ",
"                                ",
"         . .                    ",
"          .                     ",
"                           . .  ",
"                            .   ",
"                                ",
"                      ++++      ",
"                     +@@@@+++   ",
"                 . . #@@@@@$@+  ",
"                  .  #@@@@@@+   ",
"            +++++    #@@%@@+    ",
"       +++++@@###    @@@@@+     ",
"+++++++##########    @@@@@@+    ",
"#@@@@@@##########    @@@@@@@+   ",
"++++++++####%##&&&  &+@@%@@$@+  ",
"               *=- ;>,'         ",
"               )!~ >{]^  . .    ",
"    . .        //    (_   .     ",
"     .                          ",
"                                ",
"                                ",
"                                ",
"                                "};
