/* XPM */
static char * death1_xpm[] = {
"32 32 5 1",
" 	c #C0D470",
".	c #A4C263",
"+	c #802523",
"@	c #AA3B39",
"#	c #FFFFFF",
"                                ",
"                                ",
"                                ",
"                                ",
"  . .                           ",
"   .                   . .      ",
"                        .       ",
"                 +     +        ",
"                +@+   +@+       ",
"                ++@+ +@++       ",
"         . .    +@@@+@@@+       ",
"       +  .    +@@@@@@@@@+      ",
"      +@+      +@@@+@@@+@+ . .  ",
"      +@+      +@@@@@@@@@+  .   ",
"      +@+    ##+@@@@@@@@+       ",
"      +@+      ###@@@@@+        ",
"      +@@+++++++@@####@+        ",
"       +@@@@@@@@@@@@@@###       ",
"        +@@@@@@@@@@@@@+         ",
"         +@@@@@@@@@@@@+         ",
"         +@@++++++++@@+         ",
"         +@+ .     +@+          ",
"         +@+.      +@+          ",
"         +++       +++          ",
"                                ",
"                         . .    ",
"    . .                   .     ",
"     .                          ",
"                                ",
"                                ",
"                                ",
"                                "};
