/* XPM */
static char * chicken_down_xpm[] = {
"32 32 35 1",
" 	c #C0D470",
".	c #1E1F19",
"+	c #ABA88F",
"@	c #B1C367",
"#	c #A4C263",
"$	c #EFEDDB",
"%	c #1F211A",
"&	c #AFC166",
"*	c #BFD370",
"=	c #D6D3BC",
"-	c #C1BEA7",
";	c #2B2E1E",
">	c #BDD16F",
",	c #BED26F",
"'	c #2C2F1E",
")	c #BAB79E",
"!	c #22231D",
"~	c #D2CFB8",
"{	c #D4D1BB",
"]	c #E4E2CE",
"^	c #DBD8C3",
"/	c #CECBB4",
"(	c #D8D5BE",
"_	c #CFCCB5",
":	c #C0BDA6",
"<	c #B6CA6B",
"[	c #BBB8A0",
"}	c #B4202A",
"|	c #B73F40",
"1	c #21221A",
"2	c #A1B163",
"3	c #FED542",
"4	c #FFD541",
"5	c #DFD45F",
"6	c #D7D464",
"                                ",
"                                ",
"              ...               ",
"              .+..@             ",
"           ...++++.       #     ",
"     #     .$+++++$%     # #    ",
"    # #   ..$$+++$$$.           ",
"          .$$$$++$$$$..&        ",
"        *..$$$$+$$$$=-;.        ",
"       >,'==$$$$$$$$=)+!        ",
"        .=~{$$$$$$$$==+.        ",
"       ,.+~==$$$$$$]==+.        ",
"        .+~==$$$$$$^==+.        ",
"        .+/==$$$$$$===+.        ",
"        .++==$$$$$$===+.        ",
"         .+==$$$$$$===+.,       ",
"         .+=($$$$$$$=-+.        ",
"          .$$$$$$$$$_:.<        ",
"          .$$$$$$$$$[.          ",
"          .$$$$$$$$$$.          ",
"#         .$$$$}}$$$$.          ",
"          @.$$}}}|$$$1          ",
"           &.$$}}$$$.           ",
"            .$$}}$$.            ",
"            .$$$$$$.            ",
"       #2    .$$$$.             ",
"      # #     ....          #   ",
"               344         # #  ",
"               546              ",
"                                ",
"                                ",
"                                "};
