/* XPM */
static char * chicken_up_xpm[] = {
"32 32 35 1",
" 	c #C0D470",
".	c #DFD45F",
"+	c #FFD541",
"@	c #D7D464",
"#	c #FED542",
"$	c #A4C263",
"%	c #1E1F19",
"&	c #A1B163",
"*	c #EFEDDB",
"=	c #B4202A",
"-	c #AFC166",
";	c #B1C367",
">	c #B73F40",
",	c #21221A",
"'	c #BBB8A0",
")	c #CFCCB5",
"!	c #C0BDA6",
"~	c #B6CA6B",
"{	c #ABA88F",
"]	c #D6D3BC",
"^	c #D8D5BE",
"/	c #C1BEA7",
"(	c #BED26F",
"_	c #CECBB4",
":	c #D2CFB8",
"<	c #DBD8C3",
"[	c #E4E2CE",
"}	c #D4D1BB",
"|	c #BDD16F",
"1	c #2C2F1E",
"2	c #BAB79E",
"3	c #22231D",
"4	c #BFD370",
"5	c #2B2E1E",
"6	c #1F211A",
"                                ",
"                                ",
"                                ",
"               .+@              ",
"               #++         $ $  ",
"      $ $     %%%%          $   ",
"       $&    %****%             ",
"            %******%            ",
"            %**==**%            ",
"           -%**==***%           ",
"          ;%**===>***,          ",
"$         %****==****%          ",
"          %**********%          ",
"          %*********'%          ",
"          %*********)!%~        ",
"         %{]^*******]/{%        ",
"         %{]]******]]]{%(       ",
"        %{{]]******]]]{%        ",
"        %{_]]******]]]{%        ",
"        %{:]]******<]]{%        ",
"       (%{:]]******[]]{%        ",
"        %]:}********]]{%        ",
"       |(1]]********]2{3        ",
"        4%%****{****]/5%        ",
"          %****{{****%%-        ",
"    $ $   %%**{{{***%           ",
"     $     %*{{{{{*6     $ $    ",
"           %%%{{{{%       $     ",
"              %{%%;             ",
"              %%%               ",
"                                ",
"                                "};
