/* XPM */
static char * chicken_xpm[] = {
"32 32 49 1",
" 	c #C0D470",
".	c #C1D576",
"+	c #C1D472",
"@	c #C1D474",
"#	c #20221A",
"$	c #1E1F19",
"%	c #C1D575",
"&	c #A4C263",
"*	c #C2D579",
"=	c #1A1B18",
"-	c #B4202A",
";	c #AC1F28",
">	c #C2D576",
",	c #171717",
"'	c #C2D57A",
")	c #C1D473",
"!	c #F5F3E2",
"~	c #A1B163",
"{	c #C4D681",
"]	c #C4D680",
"^	c #C7D88C",
"/	c #C3D57B",
"(	c #C2D577",
"_	c #C0D471",
":	c #C0D472",
"<	c #C4D682",
"[	c #FFD541",
"}	c #8FA959",
"|	c #A9A68D",
"1	c #BCCD7B",
"2	c #A5C367",
"3	c #C4D67F",
"4	c #D6D3BC",
"5	c #242320",
"6	c #BACD71",
"7	c #F3F1E0",
"8	c #868571",
"9	c #C2D578",
"0	c #9B9982",
"a	c #CDCBB4",
"b	c #B9CC6E",
"c	c #B1C368",
"d	c #C5D684",
"e	c #C5D785",
"f	c #B9CB75",
"g	c #C5D683",
"h	c #AE8C12",
"i	c #EBC43C",
"j	c #BDD16F",
"                                ",
"                                ",
"                    .+          ",
"                   @#$%         ",
"  & &             *=-;#*        ",
"   &              >,-,'& &      ",
"                 ),!!!,~&       ",
"                >,!!!!!,{       ",
"               ]=!!!!!!!,^      ",
"              %,!!!!!!!!!=/     ",
"         & &  +,!!!!,,!!!$(     ",
"        >_&_  :,!!!!,,!!!,(     ",
"       _,,,$< @,!!!!!!!![[$} &  ",
"      ,,||||,:1,!!!!!!!![[[,2   ",
"     .,||||||,,,!!!!!!!!--,3    ",
"    :,!!!!!!!!!!!!!!!!!!-,*     ",
"    _,!!!!!!!!!!!!!!!!!!!,_     ",
"    :,!!!!!!!44444!!!!!!!,_     ",
"    :,!!44444444444!!!!!!=_     ",
"    :,5444444444444!!!!!|,_     ",
"     6=444444444444!!!78,9      ",
"      ,44444444444|!!!0=(       ",
"      @,a44444444|!!!|,_        ",
"       b=,|||||||!!!0,+         ",
"        )^,|!!!!!!!|,c          ",
"          d,|||||||,e    & &    ",
"    & &   :,,,,,,,,,f     &     ",
"     &   g,[,<)@>d,h,.          ",
"         @=[i,_  +,hh,%         ",
"          9,,j    ),,>          ",
"           9+      '%           ",
"                                "};
