/* XPM */
static char * chicken_left_xpm[] = {
"32 32 49 1",
" 	c #C0D470",
".	c #C1D472",
"+	c #C1D576",
"@	c #C1D575",
"#	c #1E1F19",
"$	c #20221A",
"%	c #C1D474",
"&	c #C2D579",
"*	c #AC1F28",
"=	c #B4202A",
"-	c #1A1B18",
";	c #A4C263",
">	c #C2D57A",
",	c #171717",
"'	c #C2D576",
")	c #A1B163",
"!	c #F5F3E2",
"~	c #C1D473",
"{	c #C4D681",
"]	c #C7D88C",
"^	c #C4D680",
"/	c #C3D57B",
"(	c #C2D577",
"_	c #C0D472",
":	c #C0D471",
"<	c #8FA959",
"[	c #FFD541",
"}	c #C4D682",
"|	c #A5C367",
"1	c #BCCD7B",
"2	c #A9A68D",
"3	c #C4D67F",
"4	c #D6D3BC",
"5	c #242320",
"6	c #C2D578",
"7	c #868571",
"8	c #F3F1E0",
"9	c #BACD71",
"0	c #9B9982",
"a	c #CDCBB4",
"b	c #B9CC6E",
"c	c #B1C368",
"d	c #C5D785",
"e	c #C5D684",
"f	c #B9CB75",
"g	c #AE8C12",
"h	c #C5D683",
"i	c #EBC43C",
"j	c #BDD16F",
"                                ",
"                                ",
"          .+                    ",
"         @#$%                   ",
"        &$*=-&             ; ;  ",
"      ; ;>,=,'              ;   ",
"       ;),!!!,~                 ",
"       {,!!!!!,'                ",
"      ],!!!!!!!-^               ",
"     /-!!!!!!!!!,@              ",
"     (#!!!,,!!!!,.  ; ;         ",
"     (,!!!,,!!!!,_  :;:'        ",
"  ; <#[[!!!!!!!!,% }#,,,:       ",
"   |,[[[!!!!!!!!,1_,2222,,      ",
"    3,==!!!!!!!!,,,222222,+     ",
"     &,=!!!!!!!!!!!!!!!!!!,_    ",
"     :,!!!!!!!!!!!!!!!!!!!,:    ",
"     :,!!!!!!!44444!!!!!!!,_    ",
"     :-!!!!!!44444444444!!,_    ",
"     :,2!!!!!4444444444445,_    ",
"      6,78!!!444444444444-9     ",
"       (-0!!!244444444444,      ",
"        :,2!!!244444444a,%      ",
"         .,0!!!2222222,-b       ",
"          c,2!!!!!!!2,]~        ",
"    ; ;    d,2222222,e          ",
"     ;     f,,,,,,,,,_   ; ;    ",
"          +,g,e'%~},[,h   ;     ",
"         @,gg,.  :,i[-%         ",
"          ',,~    j,,6          ",
"           @>      .6           ",
"                                "};
