/* XPM */
static char * move_up_xpm[] = {
"32 32 6 1",
" 	c #C0D470",
".	c #A4C263",
"+	c #3B3834",
"@	c #C0BEAD",
"#	c #AFAD9B",
"$	c #5B594A",
"                                ",
"                                ",
"                                ",
"                                ",
"  . .        +     +            ",
"   .        +@+   +@+  . .      ",
"            +@@+ +@@+   .       ",
"            +#@#+#@#+           ",
"           +#########+          ",
"           +#########+          ",
"         . +#########+          ",
"          .+########+           ",
"            +@####@+       . .  ",
"             +@@@@+#$       .   ",
"            +@@@@@@@+           ",
"           +@+@@@#++            ",
"          +@++@@@#+             ",
"          $+ +@@@#+.+$          ",
"             +@@@@++@+          ",
"             +@@@@+@+           ",
"            +@@@@@@+            ",
"           +@++@@@+             ",
"          +#+  +@+              ",
"          $+   +@+              ",
"               +@+              ",
"               +@+       . .    ",
"    . .         +@+       .     ",
"     .           +              ",
"                                ",
"                                ",
"                                ",
"                                "};
