/* XPM */
static char * move_down_xpm[] = {
"32 32 6 1",
" 	c #C0D470",
".	c #A4C263",
"+	c #3B3834",
"@	c #C0BEAD",
"#	c #5B594A",
"$	c #AFAD9B",
"                                ",
"                                ",
"                                ",
"                                ",
"     .           +              ",
"    . .         +@+       .     ",
"               +@+       . .    ",
"               +@+              ",
"          #+   +@+              ",
"          +$+  +@+              ",
"           +@++@@@+             ",
"            +@@@@@@+            ",
"             +@@@@+@+           ",
"             +@@@@++@+          ",
"          #+ +@@@$+.+#          ",
"          +@++@@@$+             ",
"           +@+@@@$++            ",
"            +@@@@@@@+           ",
"             +@@@@+$#       .   ",
"            +@$$$$@+       . .  ",
"          .+$$$$$$$$+           ",
"         . +$$$$$$$$$+          ",
"           +$$$$$$$$$+          ",
"           +$$$$$$$$$+          ",
"            +$@$+$@$+           ",
"            +@@+ +@@+   .       ",
"   .        +@+   +@+  . .      ",
"  . .        +     +            ",
"                                ",
"                                ",
"                                ",
"                                "};
