/* XPM */
static char * Mako_left_xpm[] = {
"32 32 25 1",
" 	c #C0D470",
".	c #A4C263",
"+	c #383530",
"@	c #B1AE9B",
"#	c #DCA05D",
"$	c #5B5848",
"%	c #C6B1A1",
"&	c #C2BFAE",
"*	c #3D3833",
"=	c #BFD370",
"-	c #BCCF71",
";	c #B9CC72",
">	c #BACD72",
",	c #BCD071",
"'	c #BED171",
")	c #BBCE72",
"!	c #B8CA73",
"~	c #B9CB72",
"{	c #B8CB73",
"]	c #B7C973",
"^	c #B7CA73",
"/	c #BDD071",
"(	c #BACC72",
"_	c #BCCF72",
":	c #BBCD72",
"                                ",
"                                ",
"                                ",
"                                ",
"                           . .  ",
"      . .                   .   ",
"       .                        ",
"        +     +                 ",
"       +@+   +@+                ",
"       +#@+ +@#+                ",
"       +@@@+@@@+    . .         ",
"      +@@@@@@@@@+    .          ",
"  . . +@$@@@$@@@+        +      ",
"   .  +%%@@@@%%@+       +&+     ",
"       *%@@@@%%@+      +@+      ",
"        +@@@&&&+       +@+      ",
"        +&&&&&&@+++++++@@+      ",
"        +&&&&&&&@@@&&&&@+       ",
"         +&&&&&&&&&&&&&+        ",
"         +&&&&&&&&&&&&+         ",
"         +&&++++++++&&+         ",
"          +&+     . +&+         ",
"       =-;+&+      .+&+>-,''    ",
"       )!!+$+~;;;~{!+$+{;;,     ",
"        )~]]]]]]]]]]]]]]!~=     ",
"    . . )'>!!!]]]]]]]^{!~       ",
"     .   ''/)>>)>>>)(_:, . .    ",
"                          .     ",
"                                ",
"                                ",
"                                ",
"                                "};
