/* XPM */
static char * chick_xpm[] = {
"32 32 11 1",
" 	c #C0D470",
".	c #A4C263",
"+	c #90625D",
"@	c #C58086",
"#	c #F3F2C0",
"$	c #754C60",
"%	c #D4C169",
"&	c #E8CFA6",
"*	c #C49A6C",
"=	c #B7C973",
"-	c #9DB868",
"                                ",
"                                ",
"                                ",
"                                ",
"  . .                           ",
"   .                   . .      ",
"                        .       ",
"                                ",
"                                ",
"                                ",
"         . .                    ",
"          .    +++              ",
"              +@@@+        . .  ",
"             +#####+        .   ",
"            +##$##$#+           ",
"            +####%%#+           ",
"           +########+           ",
"          +#########+           ",
"          +&###*###&+           ",
"           +***&&&&+            ",
"           =+%%+%%+=            ",
"          =-=++=++===           ",
"           =-=======            ",
"                                ",
"                                ",
"                         . .    ",
"    . .                   .     ",
"     .                          ",
"                                ",
"                                ",
"                                ",
"                                "};
