/* XPM */
static char * closed_log_xpm[] = {
"32 32 12 1",
" 	c #C0D470",
".	c #BFD370",
"+	c #B7C973",
"@	c #A4C263",
"#	c #90625D",
"$	c #C0D370",
"%	c #C49A6C",
"&	c #DCB98A",
"*	c #E8CFA6",
"=	c #B68962",
"-	c #C0D472",
";	c #C2D576",
"                                ",
"                                ",
"                                ",
"                .               ",
"+ @ @                           ",
"+  @                   @ @      ",
"                        @       ",
"                                ",
"                                ",
"                                ",
"         @ @                    ",
"          @     ##              ",
"$              #%#         @ @  ",
"           #####%######     @   ",
"          #&*%%#%#%%%%%#        ",
"         #&&&*%%%%%%%%%%#       ",
"         #&&&*=%%%%%%%%=#       ",
"         #&&&*=====%%===#   .   ",
"         #&&&*=%%%%%%%==#       ",
"         +#&*==========#+       ",
"          ++++++++++++++        ",
"           @ @                  ",
"            @                   ",
"                                ",
"                                ",
"       -;                @ @    ",
"    @ @                   @     ",
"     @                          ",
"                                ",
"                                ",
"                                ",
"                                "};
