/* XPM */
static char * exit_log_xpm[] = {
"32 32 49 1",
" 	c #C0D470",
".	c #A4C263",
"+	c #BED271",
"@	c #90625D",
"#	c #C49A6C",
"$	c #DCB98A",
"%	c #E8CFA6",
"&	c #B88E68",
"*	c #B58B68",
"=	c #B68962",
"-	c #A17761",
";	c #95685E",
">	c #86615A",
",	c #89605B",
"'	c #A37862",
")	c #B38662",
"!	c #A2755F",
"~	c #6A5653",
"{	c #6F5854",
"]	c #7B5B57",
"^	c #94665D",
"/	c #A67960",
"(	c #976F60",
"_	c #815E59",
":	c #665552",
"<	c #655552",
"[	c #675653",
"}	c #695653",
"|	c #6E5854",
"1	c #86605A",
"2	c #B7C973",
"3	c #A0735F",
"4	c #815D59",
"5	c #685653",
"6	c #665652",
"7	c #655653",
"8	c #83605A",
"9	c #BACC72",
"0	c #BBCD70",
"a	c #BCCF71",
"b	c #BBCC70",
"c	c #BBCE72",
"d	c #B7C970",
"e	c #B8CA6E",
"f	c #BFD371",
"g	c #B8CB74",
"h	c #C0D370",
"i	c #C0CA72",
"j	c #C1D272",
"                                ",
"                                ",
"                                ",
"                                ",
"  . .                           ",
"+  .                   . .      ",
"                        .       ",
"                                ",
"                                ",
"                                ",
"         . .                    ",
"          .     @@              ",
"               @#@         . .  ",
"           @@@@@#@@@@@@     .   ",
"          @$%##@#@#####@        ",
"         @$$$%####&*####@       ",
"         @$$$%=##-;>,'#=@       ",
"         @$$$%=)!@~{]^/=@       ",
"         @$$$%=(_:<[}|1=@       ",
"         2@$%=345[677[8@2       ",
"          2222990abcdecc        ",
"           . .                  ",
"            .                   ",
"                                ",
"                                ",
"                         . .    ",
"    . .           fg      .     ",
"     .                          ",
"                                ",
"                                ",
"h                               ",
"i                             j "};
