/* XPM */
static char * Grass_xpm[] = {
"32 32 388 2",
"  	c #C0D470",
". 	c #BFD070",
"+ 	c #BFD170",
"@ 	c #C0D270",
"# 	c #BECD71",
"$ 	c #9E6D77",
"% 	c #A36B77",
"& 	c #A76B77",
"* 	c #A36C77",
"= 	c #A66B76",
"- 	c #A76A76",
"; 	c #AA6976",
"> 	c #A26D77",
", 	c #C0D370",
"' 	c #A16C77",
") 	c #A9747B",
"! 	c #D5AB9F",
"~ 	c #D7A09B",
"{ 	c #D7A09A",
"] 	c #D29B97",
"^ 	c #D39D97",
"/ 	c #D39C97",
"( 	c #D6A29A",
"_ 	c #D29D97",
": 	c #CD9793",
"< 	c #A26F78",
"[ 	c #B07576",
"} 	c #9C7078",
"| 	c #A1727A",
"1 	c #D1A399",
"2 	c #D7A19A",
"3 	c #E4BCB0",
"4 	c #DCACA3",
"5 	c #E1B6AB",
"6 	c #DFB3A8",
"7 	c #DDAFA5",
"8 	c #E1B7AB",
"9 	c #E5BEB1",
"0 	c #DAA8A0",
"a 	c #C68A8B",
"b 	c #AD6876",
"c 	c #AB6976",
"d 	c #BFCE71",
"e 	c #A4C263",
"f 	c #AB6876",
"g 	c #B36D79",
"h 	c #E3BBAF",
"i 	c #E9C5B7",
"j 	c #E9C6B8",
"k 	c #D6A19A",
"l 	c #E0B3A9",
"m 	c #CE9592",
"n 	c #BC7E82",
"o 	c #BF8786",
"p 	c #DFB2A8",
"q 	c #DEADA5",
"r 	c #D9A79E",
"s 	c #E2B8AD",
"t 	c #D0A39C",
"u 	c #9A6E77",
"v 	c #BBC970",
"w 	c #886E76",
"x 	c #BC8A87",
"y 	c #E6BEB2",
"z 	c #E1B7AD",
"A 	c #EBC8BA",
"B 	c #E7C3B5",
"C 	c #DFABA5",
"D 	c #D89B9A",
"E 	c #D89E9A",
"F 	c #D89F9A",
"G 	c #E4BEB1",
"H 	c #E2B6AB",
"I 	c #D8A09A",
"J 	c #D0A598",
"K 	c #836374",
"L 	c #936B75",
"M 	c #DEAEA5",
"N 	c #E6BFB3",
"O 	c #D89D9A",
"P 	c #D99B9A",
"Q 	c #D99A9A",
"R 	c #DDADA5",
"S 	c #B9777F",
"T 	c #B6737D",
"U 	c #D5A79A",
"V 	c #B26C79",
"W 	c #A96475",
"X 	c #8F5F73",
"Y 	c #BBCB70",
"Z 	c #9C6071",
"` 	c #CDA397",
" .	c #E2B8AC",
"..	c #DEB0A7",
"+.	c #D9A69E",
"@.	c #BC7981",
"#.	c #EFCDBD",
"$.	c #E6BAB0",
"%.	c #B16A78",
"&.	c #BD757E",
"*.	c #BE767F",
"=.	c #A2697C",
"-.	c #D2A69A",
";.	c #D0A398",
">.	c #986473",
",.	c #A05D71",
"'.	c #D8A49C",
").	c #E2B9AD",
"!.	c #DBB3A5",
"~.	c #AB6877",
"{.	c #ECC8B9",
"].	c #E6BDB2",
"^.	c #D49495",
"/.	c #BF7880",
"(.	c #BB858A",
"_.	c #D5A099",
":.	c #9F5E71",
"<.	c #BDCB70",
"[.	c #D6A09A",
"}.	c #D3A399",
"|.	c #B8767E",
"1.	c #BE8387",
"2.	c #B6727C",
"3.	c #AE6D79",
"4.	c #D49496",
"5.	c #D69697",
"6.	c #CE8E90",
"7.	c #975B77",
"8.	c #D79F9A",
"9.	c #C2978F",
"0.	c #9D6171",
"a.	c #BFD270",
"b.	c #9A6172",
"c.	c #CE9593",
"d.	c #B6707C",
"e.	c #F1D3C2",
"f.	c #ECC9BA",
"g.	c #BE787F",
"h.	c #A0667B",
"i.	c #E6C1B4",
"j.	c #E5BDB1",
"k.	c #CE9D96",
"l.	c #9A5F78",
"m.	c #985C77",
"n.	c #D5A49A",
"o.	c #D3A098",
"p.	c #B78785",
"q.	c #876473",
"r.	c #8F6773",
"s.	c #BF7C81",
"t.	c #A96274",
"u.	c #F0D1C0",
"v.	c #DA9F9D",
"w.	c #CA868B",
"x.	c #C37E84",
"y.	c #BD767E",
"z.	c #A66D7E",
"A.	c #D3A69A",
"B.	c #D4A299",
"C.	c #D4A099",
"D.	c #BF8583",
"E.	c #AB7478",
"F.	c #8F5D72",
"G.	c #A2B965",
"H.	c #BECE70",
"I.	c #A05D70",
"J.	c #B9727D",
"K.	c #9C5771",
"L.	c #CD8B8E",
"M.	c #C9878C",
"N.	c #C9888D",
"O.	c #915473",
"P.	c #D6A099",
"Q.	c #CD9993",
"R.	c #BC7C80",
"S.	c #BC787E",
"T.	c #BA7E80",
"U.	c #A87779",
"V.	c #875F73",
"W.	c #BECF70",
"X.	c #A35D70",
"Y.	c #B9717B",
"Z.	c #975573",
"`.	c #8B4B70",
" +	c #915072",
".+	c #C38E8B",
"++	c #CE9893",
"@+	c #D49E97",
"#+	c #D09994",
"$+	c #C48286",
"%+	c #BD797F",
"&+	c #B6797D",
"*+	c #AE6D78",
"=+	c #8A5F73",
"-+	c #8E6873",
";+	c #A57177",
">+	c #B06A77",
",+	c #BA767E",
"'+	c #B06E79",
")+	c #B6787D",
"!+	c #BD777E",
"~+	c #BE777F",
"{+	c #BE7C81",
"]+	c #BD777F",
"^+	c #C18385",
"/+	c #C28285",
"(+	c #C28E8B",
"_+	c #BE8584",
":+	c #B4777C",
"<+	c #AD6B77",
"[+	c #8C5E73",
"}+	c #9D5D71",
"|+	c #A16672",
"1+	c #AF6976",
"2+	c #B36C79",
"3+	c #B8757D",
"4+	c #B46F7C",
"5+	c #BC7B81",
"6+	c #BC767E",
"7+	c #B87B7E",
"8+	c #B7737C",
"9+	c #B9777E",
"0+	c #AE6D77",
"a+	c #AA6975",
"b+	c #8F5B72",
"c+	c #975A6F",
"d+	c #9C5C70",
"e+	c #A76374",
"f+	c #A36273",
"g+	c #B1767C",
"h+	c #B2747B",
"i+	c #B5797D",
"j+	c #BC757D",
"k+	c #BC757E",
"l+	c #B46D79",
"m+	c #9D5E74",
"n+	c #9C5973",
"o+	c #A45F74",
"p+	c #B8737D",
"q+	c #995773",
"r+	c #9D5972",
"s+	c #BA737D",
"t+	c #BC747E",
"u+	c #B46E79",
"v+	c #9F6072",
"w+	c #956A72",
"x+	c #855F73",
"y+	c #976573",
"z+	c #9F6073",
"A+	c #9B5E70",
"B+	c #9A5B70",
"C+	c #9B5E71",
"D+	c #9A5C70",
"E+	c #A56273",
"F+	c #A86674",
"G+	c #AD6976",
"H+	c #BA727C",
"I+	c #9E5A73",
"J+	c #EED0C0",
"K+	c #E2B5AC",
"L+	c #A25C73",
"M+	c #B66F7C",
"N+	c #955473",
"O+	c #B06B77",
"P+	c #A26173",
"Q+	c #975C6F",
"R+	c #90596E",
"S+	c #8D6273",
"T+	c #9C5E70",
"U+	c #985A6F",
"V+	c #9E6071",
"W+	c #95596E",
"X+	c #A86675",
"Y+	c #A05F71",
"Z+	c #A16072",
"`+	c #9E5871",
" @	c #CD9E9C",
".@	c #E4BCB1",
"+@	c #C68288",
"@@	c #BD767F",
"#@	c #B36D7B",
"$@	c #925071",
"%@	c #AF6B77",
"&@	c #9E5E71",
"*@	c #A05F72",
"=@	c #A36473",
"-@	c #925A6F",
";@	c #916473",
">@	c #9B6073",
",@	c #9D5D70",
"'@	c #94576E",
")@	c #94566E",
"!@	c #9A5D70",
"~@	c #A66473",
"{@	c #AD6B76",
"]@	c #9D5871",
"^@	c #C48288",
"/@	c #C18087",
"(@	c #C78489",
"_@	c #935171",
":@	c #A56673",
"<@	c #9B5B70",
"[@	c #9F5D71",
"}@	c #AF6776",
"|@	c #986772",
"1@	c #885F73",
"2@	c #BBCA70",
"3@	c #945C71",
"4@	c #A46675",
"5@	c #985E70",
"6@	c #9B5C70",
"7@	c #9A5B6F",
"8@	c #995A6F",
"9@	c #A66374",
"0@	c #905071",
"a@	c #8D4E6F",
"b@	c #90526F",
"c@	c #9A6171",
"d@	c #9B5B6F",
"e@	c #9E6473",
"f@	c #98596E",
"g@	c #8E6373",
"h@	c #B7C170",
"i@	c #8B6373",
"j@	c #945E72",
"k@	c #9A6372",
"l@	c #9E6070",
"m@	c #A26673",
"n@	c #975B6F",
"o@	c #9B5F70",
"p@	c #9A5D6F",
"q@	c #95586E",
"r@	c #975E70",
"s@	c #985B6F",
"t@	c #995B6F",
"u@	c #9D6572",
"v@	c #935970",
"w@	c #975870",
"x@	c #8F5971",
"y@	c #8D5A6E",
"z@	c #8E536C",
"A@	c #8D526D",
"B@	c #8E516D",
"C@	c #8E506D",
"D@	c #8D516D",
"E@	c #845F71",
"F@	c #956162",
"G@	c #A47060",
"H@	c #A16D61",
"I@	c #9C6566",
"J@	c #9D6666",
"K@	c #9E6864",
"L@	c #A9745E",
"M@	c #946261",
"N@	c #BDC970",
"O@	c #BDCA70",
"P@	c #BEAB78",
"Q@	c #C0CC72",
"R@	c #BE987A",
"S@	c #90625D",
"T@	c #B68962",
"U@	c #AA7959",
"V@	c #BD827D",
"W@	c #BFBA75",
"X@	c #B7C973",
"Y@	c #C49A6C",
"Z@	c #BC907B",
"`@	c #C0D271",
" #	c #BE9A7A",
".#	c #BD867C",
"+#	c #BC847D",
"@#	c #B7C773",
"##	c #BFB875",
"$#	c #B7C674",
"%#	c #C0CB72",
"&#	c #C0C872",
"*#	c #C0CE71",
"=#	c #BC8E7C",
"-#	c #BB9A7A",
";#	c #BAA579",
">#	c #C0CF71",
",#	c #BE977A",
"'#	c #BEA479",
")#	c #BE8E7B",
"!#	c #B8C174",
"~#	c #B8C075",
"{#	c #BE907B",
"]#	c #BE8C7C",
"                        . + + . + @ . # .                       ",
"                        $ % & * * = - ; > , ,                   ",
"                    ' ) ! ~ { ] ^ / ( _ : < [                   ",
"                } | 1 2 3 4 5 6 6 7 8 9 0 a b c d               ",
"    e   e   + f g 2 2 2 h 2 i j 8 k 9 l 0 2 m n b @             ",
"      e   @ c o 2 h h h 7 p h q { 2 { q { r 8 s t u v           ",
"          w x 2 2 7 y z A B C D E F 8 G H I 2 s 7 J K           ",
"        @ L h 2 { 2 z M N F O P Q R 6 S T U V W 2 _ X Y         ",
"      , Z ` 8 8 4 4 2 2 r  ...+.k F @.#.$.%.&.*.=.-.;.>.        ",
"      , ,.k r r '.'.2 2 2 ).B 8 8 !.~.{.].^.*./.(.k _.:.<.      ",
"      , ,.[.}.|.1.2 2.~.2 { p G 6 s 2 3.4.5.6.7.}.8.9.0.        ",
"      a.b.c.d.e.f.g &.g.h.2 { i.j.7 2 k.l.l.m.n.o.p.q.,         ",
"      a.r.s.t.u.v.w.x.y.z.2 2 2 G 7 2 7 2 A.B.C.D.E.F.G.  e     ",
"        H.I.J.K.L.M.N.O.}.2 2 2 2 s i.7 2 P.Q.R.S.T.U.V.e       ",
"      , W.X.Y.y.Z.`. +.+++@+{ 2 2 2 2 C.#+$+%+y.&.&+*+=+        ",
"      a.-+;+>+,+&.'+)+!+~+{+]+^+/+(+_+S.&.&.&.&.&.:+<+[+        ",
"      , }+|+1+2+3+4+5+y.&.&.6+]+7+8+&.&.J.&.&.&.9+0+a+b+        ",
"      , :.c+d+e+f+g+h+i+j+k+l+m+n+o+p+q+r+6+s+t+u+v+w+x+        ",
"        y+z+A+B+C+D+E+F+G+u+H+I+J+K+L+M+&.N+O+O+P+Q+R+,         ",
"        + S+T+U+V+W+D+X+P+Y+Z+`+ @.@+@@@#@$@%@&@*@=@-@          ",
"          ;@>@,@,@'@)@U+:.!@~@{@]@^@/@(@_@:@<@[@}@|@1@          ",
"          2@3@4@5@6@7@Z+U+,@8@E+9@0@a@b@c@7@d@e@f@g@h@          ",
"            . i@j@k@c+l@V+m@n@o@p@q@r@s@t@u@v@w@x@              ",
"                a.y@z@z@A@B@C@C@B@B@B@B@D@E@2@Y                 ",
"                  a., + F@G@H@I@J@K@L@M@N@O@, P@Q@              ",
"                  R@R@  S@T@U@U@U@U@T@S@      V@@ e   e         ",
"        e   e     W@R@X@S@T@T@T@T@T@T@S@X@          e           ",
"          e       X@X@X@S@T@Y@T@Y@Y@Y@S@X@X@Z@`@                ",
"        y. #  .#+#X@X@S@Y@Y@Y@Y@Y@Y@&.Y@S@X@Z@@#                ",
"              ##$#X@X@X@Y@Y@Y@Y@Y@Y@Y@Y@X@X@X@X@        %#&#    ",
"          R@*#    X@X@=#X@X@-#y.Y@X@X@X@$#;#X@>#,#      '#)#    ",
"          R@R@        =#X@X@!#-#X@X@X@X@~#,#  {#]#              "};
