/* XPM */
static char * b_death3_xpm[] = {
"32 32 48 1",
" 	c #C0D470",
".	c #AEC868",
"+	c #171717",
"@	c #A9A68D",
"#	c #F5F3E2",
"$	c #F0F0DA",
"%	c #313621",
"&	c #D6D3BC",
"*	c #B4202A",
"=	c #E1E0CC",
"-	c #DAD8C9",
";	c #D6D4C5",
">	c #393F24",
",	c #404326",
"'	c #D7E1AA",
")	c #1A1B18",
"!	c #F3F1E0",
"~	c #841C22",
"{	c #6A3431",
"]	c #CCCAB3",
"^	c #CECBB5",
"/	c #47181A",
"(	c #F2EEDD",
"_	c #20221A",
":	c #20221B",
"<	c #B4292B",
"[	c #C2D57A",
"}	c #C2D578",
"|	c #F4CC3E",
"1	c #BDD16E",
"2	c #AE8C12",
"3	c #FFD541",
"4	c #1E1F19",
"5	c #EBC43C",
"6	c #BECB6C",
"7	c #401819",
"8	c #A48619",
"9	c #49502D",
"0	c #B4292C",
"a	c #4A1B1B",
"b	c #23261B",
"c	c #341F1A",
"d	c #BFCC6C",
"e	c #BFCF6E",
"f	c #BEC76A",
"g	c #333822",
"h	c #BBAE5E",
"i	c #C0D36F",
"                                ",
"                                ",
"                                ",
"                                ",
"  . .                           ",
"   .                     .      ",
"                                ",
"                                ",
"                                ",
"                                ",
"                                ",
"                               .",
"                                ",
"                                ",
"                                ",
"                                ",
"                                ",
"     +++                        ",
"  +++@@@@+                      ",
"  +@@@@@@@++++++                ",
" +############$+%       ++++    ",
" +########&#####++ **   +=-;>   ",
" +##&&&&&&&&&&&&##+,**++'####+  ",
"  )&&&&&&&&&&&&&####****#####+  ",
"  +&&&&&&&&&&&&&###!~{*###++##*)",
"   +]^&&&&&&&&@###+/***(##++##+_",
"    +:++########;++*<*########+[",
"       ++++++++++*****##*#####+}",
"      +|+    1+2+*****#+*334#+  ",
"      )35+   6789***0****+34a** ",
"       b+    ************ 3c***d",
"              ef********  gh* di"};
