/* XPM */
static char * b_death2_xpm[] = {
"32 32 74 1",
" 	c #C0D470",
".	c #C1D571",
"+	c #C1D472",
"@	c #A4C263",
"#	c #A1B163",
"$	c #C0D472",
"%	c #C1D575",
"&	c #C2D579",
"*	c #1A1B18",
"=	c #20221A",
"-	c #26281C",
";	c #C2D576",
">	c #171717",
",	c #B4202A",
"'	c #C2D57A",
")	c #C0D471",
"!	c #C2D575",
"~	c #F5F3E2",
"{	c #1E1F19",
"]	c #C4D682",
"^	c #C1D471",
"/	c #C2D578",
"(	c #C4D681",
"_	c #A9A68D",
":	c #BDD175",
"<	c #C7D88C",
"[	c #C1D576",
"}	c #2C2F1F",
"|	c #DEE5B7",
"1	c #C3D57B",
"2	c #F0F0DA",
"3	c #D5E0A6",
"4	c #BFD271",
"5	c #F1EFDE",
"6	c #C2D577",
"7	c #E5E3C5",
"8	c #FFD541",
"9	c #D6D3BC",
"0	c #F5F3E1",
"a	c #C4D67F",
"b	c #242320",
"c	c #DEC2B5",
"d	c #F2EEDD",
"e	c #BACD71",
"f	c #F3F1E0",
"g	c #B4252D",
"h	c #9B9982",
"i	c #C2D476",
"j	c #BCCC76",
"k	c #C1D474",
"l	c #CDCBB4",
"m	c #BFCF6E",
"n	c #B9CC6E",
"o	c #BFCE6D",
"p	c #C1D473",
"q	c #B1C368",
"r	c #BFCC6C",
"s	c #C5D684",
"t	c #C5D785",
"u	c #BEC86A",
"v	c #B9CB75",
"w	c #B53B30",
"x	c #C5D683",
"y	c #AE8C12",
"z	c #BA9A54",
"A	c #EBC43C",
"B	c #B54D35",
"C	c #BDD16F",
"D	c #B64031",
"E	c #B5272C",
"F	c #B5322E",
"G	c #B52A2C",
"H	c #B76C41",
"I	c #BDBB64",
"                                ",
"                                ",
"                    .+          ",
"                                ",
"  @ @                           ",
"   @                   @ @      ",
"                       #@       ",
"                                ",
"               .           $    ",
"              %          &*=-   ",
"         @ @            ;>,>'&  ",
"        ;)@)          !>>~~~># @",
"       )>>>{] ^      /*~~~~~>(  ",
"      >>____>$:     ^>~~~~~~~>< ",
"     [>______>>}|   >~~~~>>~~~*1",
"    $>~~~~~~~~~~~234,5~~~>>~~{6 ",
"    )>~~~~~~~~~~~~~7,,~~~~~~88{ ",
"    $>~~~~~~~99999~~0,~~~~~~888>",
"    $>~~99999999999~~,,,~~~,,>a ",
"    $>b999999999999~~~~c,d~~>&  ",
"     e*999999999999~~~fg,,~~>)  ",
"      >99999999999_~~~h*i,j*)   ",
"      k>l99999999_~~~_>) ,m )   ",
"       n*>_______~~~h>+  ,o     ",
"        p<>_~~~~~~~_>q   ,r     ",
"          s>_______>t    ,u,    ",
"    @ @   $>>>>>>>>>v     ,w    ",
"     @   x>8>]pk;s>y>[  mz      ",
"         k*8A>)  +>yy>% mB mm   ",
"          />>C    p>>;  DE,,,,  ",
"           /+      '%   FGHI    ",
"                                "};
