/* XPM */
static char * b_death1_xpm[] = {
"32 32 43 1",
" 	c #C0D470",
".	c #C1D576",
"+	c #C1D472",
"@	c #C1D474",
"#	c #802523",
"$	c #C1D575",
"%	c #A4C263",
"&	c #C2D579",
"*	c #B4202A",
"=	c #AC1F28",
"-	c #C2D576",
";	c #C2D57A",
">	c #C1D473",
",	c #AA3B39",
"'	c #A1B163",
")	c #C4D681",
"!	c #C4D680",
"~	c #C7D88C",
"{	c #C3D57B",
"]	c #171717",
"^	c #C2D577",
"/	c #C0D471",
"(	c #C0D472",
"_	c #C4D682",
":	c #FFFFFF",
"<	c #C7D887",
"[	c #FFD541",
"}	c #8FA959",
"|	c #A5C367",
"1	c #FAF7F7",
"2	c #C4D67F",
"3	c #C6D884",
"4	c #BACD71",
"5	c #C2D578",
"6	c #B9CC6E",
"7	c #B1C368",
"8	c #C5D684",
"9	c #C5D785",
"0	c #B9CB75",
"a	c #C5D683",
"b	c #AE8C12",
"c	c #EBC43C",
"d	c #BDD16F",
"                                ",
"                                ",
"                    .+          ",
"                   @##$         ",
"  % %             &#*=#&        ",
"   %              -#*#;% %      ",
"                 >#,,,#'%       ",
"                -#,,,,,#)       ",
"               !#,,,,,,,#~      ",
"              $#,,,,,,,,,#{     ",
"         % %  +#,,,,]],,,#^     ",
"        -/%/  (#,,,,]],,,#^     ",
"       /####_:<#,,,,,,,,[[#} %  ",
"      ##,,,,#(:::,,,,,,,[[[#|   ",
"     .#,,,,,,###:1,,,,,,**#2    ",
"    (#,,,,,,,,,,,:::,,,,*#&     ",
"    /#,,,,,,,,,,,,,::::,,#/     ",
"    (#,,,,,,,#####,,::::,#/     ",
"    (#,,###########,,,,:::/     ",
"    (##############,,,,,:::3    ",
"     4#############,,,,,#5::    ",
"      #############,,,,#^       ",
"      @###########,,,,#/        ",
"       6#########,,,,#+         ",
"        >~##,,,,,,,,#7          ",
"          8#,,,,,,,#9    % %    ",
"    % %   (#########0     %     ",
"     %   a#[#_>@-8#b#.          ",
"         @#[c#/  +#bb#$         ",
"          5##d    >##-          ",
"           5+      ;$           ",
"                                "};
